<?xml version="1.0" encoding="UTF-8"?>
<!DOCTYPE svg PUBLIC "-//W3C//DTD SVG 1.1//EN" "http://www.w3.org/Graphics/SVG/1.1/DTD/svg11.dtd">
<svg version="1.2" width="40mm" height="40mm" viewBox="0 0 3600 3600" preserveAspectRatio="xMidYMid" fill-rule="evenodd" stroke-width="28.222" stroke-linejoin="round" xmlns="http://www.w3.org/2000/svg" xmlns:ooo="http://xml.openoffice.org/svg/export" xmlns:xlink="http://www.w3.org/1999/xlink" xmlns:presentation="http://sun.com/xmlns/staroffice/presentation" xmlns:smil="http://www.w3.org/2001/SMIL20/" xmlns:anim="urn:oasis:names:tc:opendocument:xmlns:animation:1.0" xml:space="preserve">
 <defs class="ClipPathGroup">
  <clipPath id="presentation_clip_path" clipPathUnits="userSpaceOnUse">
   <rect x="0" y="0" width="3600" height="3600"/>
  </clipPath>
  <clipPath id="presentation_clip_path_shrink" clipPathUnits="userSpaceOnUse">
   <rect x="3" y="3" width="3593" height="3593"/>
  </clipPath>
 </defs>
 <defs class="TextShapeIndex">
  <g ooo:slide="id1" ooo:id-list="id3 id4 id5 id6 id7 id8 id9 id10 id11 id12 id13 id14 id15 id16 id17 id18 id19 id20"/>
 </defs>
 <defs class="EmbeddedBulletChars">
  <g id="bullet-char-template-57356" transform="scale(0.00048828125,-0.00048828125)">
   <path d="M 580,1141 L 1163,571 580,0 -4,571 580,1141 Z"/>
  </g>
  <g id="bullet-char-template-57354" transform="scale(0.00048828125,-0.00048828125)">
   <path d="M 8,1128 L 1137,1128 1137,0 8,0 8,1128 Z"/>
  </g>
  <g id="bullet-char-template-10146" transform="scale(0.00048828125,-0.00048828125)">
   <path d="M 174,0 L 602,739 174,1481 1456,739 174,0 Z M 1358,739 L 309,1346 659,739 1358,739 Z"/>
  </g>
  <g id="bullet-char-template-10132" transform="scale(0.00048828125,-0.00048828125)">
   <path d="M 2015,739 L 1276,0 717,0 1260,543 174,543 174,936 1260,936 717,1481 1274,1481 2015,739 Z"/>
  </g>
  <g id="bullet-char-template-10007" transform="scale(0.00048828125,-0.00048828125)">
   <path d="M 0,-2 C -7,14 -16,27 -25,37 L 356,567 C 262,823 215,952 215,954 215,979 228,992 255,992 264,992 276,990 289,987 310,991 331,999 354,1012 L 381,999 492,748 772,1049 836,1024 860,1049 C 881,1039 901,1025 922,1006 886,937 835,863 770,784 769,783 710,716 594,584 L 774,223 C 774,196 753,168 711,139 L 727,119 C 717,90 699,76 672,76 641,76 570,178 457,381 L 164,-76 C 142,-110 111,-127 72,-127 30,-127 9,-110 8,-76 1,-67 -2,-52 -2,-32 -2,-23 -1,-13 0,-2 Z"/>
  </g>
  <g id="bullet-char-template-10004" transform="scale(0.00048828125,-0.00048828125)">
   <path d="M 285,-33 C 182,-33 111,30 74,156 52,228 41,333 41,471 41,549 55,616 82,672 116,743 169,778 240,778 293,778 328,747 346,684 L 369,508 C 377,444 397,411 428,410 L 1163,1116 C 1174,1127 1196,1133 1229,1133 1271,1133 1292,1118 1292,1087 L 1292,965 C 1292,929 1282,901 1262,881 L 442,47 C 390,-6 338,-33 285,-33 Z"/>
  </g>
  <g id="bullet-char-template-9679" transform="scale(0.00048828125,-0.00048828125)">
   <path d="M 813,0 C 632,0 489,54 383,161 276,268 223,411 223,592 223,773 276,916 383,1023 489,1130 632,1184 813,1184 992,1184 1136,1130 1245,1023 1353,916 1407,772 1407,592 1407,412 1353,268 1245,161 1136,54 992,0 813,0 Z"/>
  </g>
  <g id="bullet-char-template-8226" transform="scale(0.00048828125,-0.00048828125)">
   <path d="M 346,457 C 273,457 209,483 155,535 101,586 74,649 74,723 74,796 101,859 155,911 209,963 273,989 346,989 419,989 480,963 531,910 582,859 608,796 608,723 608,648 583,586 532,535 482,483 420,457 346,457 Z"/>
  </g>
  <g id="bullet-char-template-8211" transform="scale(0.00048828125,-0.00048828125)">
   <path d="M -4,459 L 1135,459 1135,606 -4,606 -4,459 Z"/>
  </g>
  <g id="bullet-char-template-61548" transform="scale(0.00048828125,-0.00048828125)">
   <path d="M 173,740 C 173,903 231,1043 346,1159 462,1274 601,1332 765,1332 928,1332 1067,1274 1183,1159 1299,1043 1357,903 1357,740 1357,577 1299,437 1183,322 1067,206 928,148 765,148 601,148 462,206 346,322 231,437 173,577 173,740 Z"/>
  </g>
 </defs>
 <g>
  <g id="id2" class="Master_Slide">
   <g id="bg-id2" class="Background"/>
   <g id="bo-id2" class="BackgroundObjects"/>
  </g>
 </g>
 <g class="SlideGroup">
  <g>
   <g id="container-id1">
    <g id="id1" class="Slide" clip-path="url(#presentation_clip_path)">
     <g class="Page">
      <g class="com.sun.star.drawing.CustomShape">
       <g id="id3">
        <rect class="BoundingBox" stroke="none" fill="none" x="198" y="198" width="3204" height="3202"/>
        <path fill="none" stroke="rgb(124,124,124)" stroke-width="141" stroke-linejoin="round" d="M 1800,3328 L 269,3328 269,269 3330,269 3330,3328 1800,3328 Z"/>
       </g>
      </g>
      <g class="com.sun.star.drawing.CustomShape">
       <g id="id4">
        <rect class="BoundingBox" stroke="none" fill="none" x="1926" y="198" width="1477" height="2304"/>
        <path fill="none" stroke="rgb(124,124,124)" stroke-width="141" stroke-linejoin="round" d="M 2664,2430 L 1997,2430 1997,269 3331,269 3331,2430 2664,2430 Z"/>
       </g>
      </g>
      <g class="com.sun.star.drawing.CustomShape">
       <g id="id5">
        <rect class="BoundingBox" stroke="none" fill="none" x="198" y="198" width="3204" height="2304"/>
        <path fill="none" stroke="rgb(124,124,124)" stroke-width="141" stroke-linejoin="round" d="M 1800,2430 L 269,2430 269,269 3330,269 3330,2430 1800,2430 Z"/>
       </g>
      </g>
      <g class="com.sun.star.drawing.LineShape">
       <g id="id6">
        <rect class="BoundingBox" stroke="none" fill="none" x="445" y="553" width="840" height="83"/>
        <path fill="none" stroke="rgb(124,124,124)" stroke-width="81" stroke-linejoin="round" d="M 486,594 L 1243,594"/>
       </g>
      </g>
      <g class="com.sun.star.drawing.LineShape">
       <g id="id7">
        <rect class="BoundingBox" stroke="none" fill="none" x="553" y="723" width="948" height="83"/>
        <path fill="none" stroke="rgb(124,124,124)" stroke-width="81" stroke-linejoin="round" d="M 594,764 L 1459,764"/>
       </g>
      </g>
      <g class="com.sun.star.drawing.LineShape">
       <g id="id8">
        <rect class="BoundingBox" stroke="none" fill="none" x="553" y="893" width="948" height="83"/>
        <path fill="none" stroke="rgb(124,124,124)" stroke-width="81" stroke-linejoin="round" d="M 594,934 L 1459,934"/>
       </g>
      </g>
      <g class="com.sun.star.drawing.LineShape">
       <g id="id9">
        <rect class="BoundingBox" stroke="none" fill="none" x="553" y="1063" width="734" height="83"/>
        <path fill="none" stroke="rgb(124,124,124)" stroke-width="81" stroke-linejoin="round" d="M 594,1104 L 1245,1104"/>
       </g>
      </g>
      <g class="com.sun.star.drawing.LineShape">
       <g id="id10">
        <rect class="BoundingBox" stroke="none" fill="none" x="449" y="1403" width="840" height="83"/>
        <path fill="none" stroke="rgb(124,124,124)" stroke-width="81" stroke-linejoin="round" d="M 490,1444 L 1247,1444"/>
       </g>
      </g>
      <g class="com.sun.star.drawing.LineShape">
       <g id="id11">
        <rect class="BoundingBox" stroke="none" fill="none" x="553" y="1572" width="737" height="83"/>
        <path fill="none" stroke="rgb(124,124,124)" stroke-width="81" stroke-linejoin="round" d="M 594,1613 L 1248,1613"/>
       </g>
      </g>
      <g class="com.sun.star.drawing.LineShape">
       <g id="id12">
        <rect class="BoundingBox" stroke="none" fill="none" x="553" y="1740" width="840" height="85"/>
        <path fill="none" stroke="rgb(124,124,124)" stroke-width="81" stroke-linejoin="round" d="M 594,1783 L 1351,1781"/>
       </g>
      </g>
      <g class="com.sun.star.drawing.LineShape">
       <g id="id13">
        <rect class="BoundingBox" stroke="none" fill="none" x="553" y="1912" width="738" height="83"/>
        <path fill="none" stroke="rgb(124,124,124)" stroke-width="81" stroke-linejoin="round" d="M 594,1953 L 1249,1953"/>
       </g>
      </g>
      <g class="com.sun.star.drawing.LineShape">
       <g id="id14">
        <rect class="BoundingBox" stroke="none" fill="none" x="1080" y="2591" width="1828" height="83"/>
        <path fill="none" stroke="rgb(124,124,124)" stroke-width="81" stroke-linejoin="round" d="M 1121,2632 L 2866,2632"/>
       </g>
      </g>
      <g class="com.sun.star.drawing.LineShape">
       <g id="id15">
        <rect class="BoundingBox" stroke="none" fill="none" x="1080" y="2761" width="1931" height="83"/>
        <path fill="none" stroke="rgb(124,124,124)" stroke-width="81" stroke-linejoin="round" d="M 1121,2802 L 2969,2802"/>
       </g>
      </g>
      <g class="com.sun.star.drawing.LineShape">
       <g id="id16">
        <rect class="BoundingBox" stroke="none" fill="none" x="1080" y="2931" width="2136" height="83"/>
        <path fill="none" stroke="rgb(124,124,124)" stroke-width="81" stroke-linejoin="round" d="M 1121,2972 L 3174,2972"/>
       </g>
      </g>
      <g class="com.sun.star.drawing.CustomShape">
       <g id="id17">
        <rect class="BoundingBox" stroke="none" fill="none" x="198" y="2360" width="788" height="1041"/>
        <path fill="none" stroke="rgb(124,124,124)" stroke-width="141" stroke-linejoin="round" d="M 592,3329 L 269,3329 269,2431 914,2431 914,3329 592,3329 Z"/>
       </g>
      </g>
      <g class="com.sun.star.drawing.LineShape">
       <g id="id18">
        <rect class="BoundingBox" stroke="none" fill="none" x="1081" y="3101" width="1716" height="83"/>
        <path fill="none" stroke="rgb(124,124,124)" stroke-width="81" stroke-linejoin="round" d="M 1122,3142 L 2755,3142"/>
       </g>
      </g>
      <g class="Graphic">
       <g id="id19">
        <rect class="BoundingBox" stroke="none" fill="none" x="1133" y="270" width="2488" height="2487"/>
        <path fill="rgb(47,47,47)" stroke="none" d="M 2280,2400 L 2343,2219 2071,1966 C 2071,1966 1872,1963 1861,1963 1849,1963 1796,2219 1796,2219 L 1891,2376 2166,2473 C 2166,2473 2276,2465 2280,2400 Z"/>
        <path fill="rgb(247,147,41)" stroke="none" d="M 2109,1454 C 2079,1485 2048,1512 2021,1545 1941,1641 1807,1674 1725,1775 1671,1842 1633,1925 1614,2008 1593,2103 1580,2206 1606,2299 1642,2426 1753,2441 1869,2459 1922,2467 1976,2471 2030,2473 2073,2474 2123,2479 2166,2473 2204,2468 2211,2417 2201,2387 2190,2355 2157,2343 2127,2337 2112,2334 2097,2339 2082,2336 2054,2332 2042,2313 2041,2285 2041,2247 2028,2215 2010,2182 2002,2167 1989,2154 1976,2142 1963,2130 1941,2114 1953,2093 1975,2057 2039,2090 2061,2106 2094,2130 2118,2166 2129,2206 2144,2261 2155,2265 2207,2285 2237,2296 2265,2316 2277,2346 2291,2384 2267,2428 2292,2461 2311,2487 2348,2501 2382,2500 2469,2496 2528,2475 2510,2386 2498,2330 2502,2269 2498,2211 2497,2189 2495,2156 2517,2140 2525,2134 2537,2133 2547,2134 2553,2134 2570,2133 2577,2135 2596,2141 2591,2171 2591,2187 2591,2217 2591,2248 2592,2278 2593,2314 2589,2349 2589,2385 2588,2408 2586,2436 2605,2453 2627,2472 2660,2476 2690,2477 2726,2478 2767,2476 2796,2455 2857,2412 2836,2314 2831,2257 2827,2220 2830,2181 2831,2143 2831,2108 2832,2074 2833,2039 2834,2025 2836,2010 2835,1995 2832,1955 2840,1913 2841,1871 2843,1794 2847,1716 2847,1637 2847,1604 2842,1567 2832,1535 2827,1518 2821,1495 2812,1480 2798,1457 2773,1436 2752,1417 2726,1393 2694,1381 2664,1363 2624,1339 2583,1317 2540,1298 2465,1266 2385,1239 2301,1236 2271,1235 2249,1230 2220,1224 2192,1217 2177,1236 2172,1263 2168,1280 2166,1298 2164,1315 2158,1368 2147,1415 2109,1454 Z"/>
        <path fill="rgb(247,147,41)" stroke="none" d="M 2607,572 C 2666,486 2852,245 2946,295 3091,372 3075,915 3075,915 L 2470,760 C 2470,760 2511,710 2607,572 Z"/>
        <path fill="rgb(247,147,41)" stroke="none" d="M 2409,767 C 2409,767 2359,726 2237,611 2161,539 1929,342 1847,410 1721,516 1850,1044 1850,1044 L 2409,767 2409,767 Z"/>
        <path fill="rgb(247,147,41)" stroke="none" d="M 1983,807 C 2094,708 2259,647 2426,629 2592,612 2767,638 2896,711 3057,802 3171,964 3200,1130 3227,1287 3212,1450 3076,1575 3000,1645 2903,1697 2800,1730 2762,1743 2660,1774 2553,1785 2445,1796 2330,1789 2289,1784 2182,1773 2075,1742 1987,1690 1828,1595 1779,1439 1773,1279 1767,1112 1845,930 1983,807 Z"/>
        <path fill="rgb(47,47,47)" stroke="none" d="M 2727,1217 C 2734,1278 2783,1324 2838,1318 2893,1312 2933,1258 2926,1196 2920,1134 2870,1088 2815,1094 2760,1100 2721,1155 2727,1217 L 2727,1217 Z"/>
        <path fill="rgb(47,47,47)" stroke="none" d="M 2263,1265 C 2270,1327 2231,1382 2176,1388 2121,1394 2071,1348 2064,1286 2058,1224 2097,1169 2152,1164 2207,1158 2257,1203 2263,1265 L 2263,1265 Z"/>
        <path fill="rgb(47,47,47)" stroke="none" d="M 2520,1526 C 2536,1524 2548,1510 2547,1493 L 2535,1383 C 2533,1367 2518,1356 2502,1357 2486,1358 2474,1373 2475,1389 L 2487,1499 C 2489,1515 2502,1526 2517,1526 2518,1526 2519,1526 2520,1526 Z"/>
        <path fill="rgb(47,47,47)" stroke="none" d="M 2687,1572 C 2705,1558 2733,1517 2704,1502 2699,1499 2694,1498 2689,1497 2681,1496 2674,1498 2667,1504 2656,1512 2646,1527 2632,1529 2589,1538 2552,1516 2541,1473 2538,1461 2537,1455 2524,1454 2490,1451 2482,1493 2491,1518 2499,1541 2510,1565 2531,1579 2553,1592 2579,1598 2604,1598 2634,1598 2665,1589 2687,1572 Z"/>
        <path fill="rgb(47,47,47)" stroke="none" d="M 2360,1602 C 2340,1591 2305,1557 2330,1536 2346,1523 2360,1528 2376,1538 2416,1564 2470,1546 2483,1500 2486,1489 2482,1472 2487,1463 2489,1458 2493,1459 2499,1457 2502,1456 2505,1454 2509,1454 2527,1453 2538,1473 2541,1489 2542,1497 2544,1505 2543,1513 2539,1537 2533,1563 2514,1580 2496,1597 2471,1608 2446,1612 2416,1618 2385,1614 2360,1602 Z"/>
        <path fill="rgb(47,47,47)" stroke="none" d="M 2577,1449 C 2561,1462 2537,1470 2513,1472 2489,1474 2464,1472 2446,1463 2423,1452 2407,1432 2403,1412 2400,1393 2402,1372 2422,1356 2433,1347 2447,1341 2462,1337 2467,1335 2482,1331 2497,1329 2513,1328 2529,1328 2535,1329 2550,1330 2565,1334 2578,1340 2601,1351 2607,1370 2608,1390 2608,1411 2597,1434 2577,1449 Z"/>
        <path fill="rgb(247,147,41)" stroke="none" d="M 1654,2187 C 1541,2200 1413,2299 1408,2417 1402,2568 1537,2678 1671,2714 1769,2740 1875,2740 1975,2736 2019,2734 2099,2742 2138,2717 2152,2708 2164,2690 2170,2675 2193,2621 2146,2583 2096,2584 2059,2584 2023,2584 1986,2584 1906,2583 1825,2589 1746,2574 1674,2559 1568,2503 1573,2415 1576,2350 1648,2338 1699,2330 1712,2328 1725,2324 1740,2323 1770,2323 1768,2295 1766,2273 1763,2243 1758,2217 1733,2196 1732,2195 1730,2193 1728,2192 1704,2177 1680,2184 1654,2187 Z"/>
        <path fill="rgb(247,147,41)" stroke="none" d="M 3158,1237 L 3317,1206 C 3333,1203 3344,1187 3340,1171 3337,1155 3321,1144 3305,1148 L 3147,1179 C 3131,1182 3120,1198 3123,1214 3126,1228 3139,1238 3152,1238 3154,1238 3156,1238 3158,1237 Z"/>
        <path fill="rgb(247,147,41)" stroke="none" d="M 3345,1333 C 3347,1317 3336,1302 3319,1300 L 3159,1279 C 3143,1276 3128,1288 3125,1304 3123,1321 3135,1336 3151,1338 L 3311,1359 C 3313,1359 3314,1359 3315,1359 3330,1359 3343,1348 3345,1333 Z"/>
        <path fill="rgb(247,147,41)" stroke="none" d="M 3297,1472 C 3302,1457 3292,1440 3276,1436 L 3121,1391 C 3105,1387 3089,1396 3084,1412 3080,1428 3089,1444 3105,1449 L 3260,1493 C 3263,1494 3265,1494 3268,1494 3281,1494 3293,1486 3297,1472 Z"/>
        <path fill="rgb(247,147,41)" stroke="none" d="M 1872,1327 C 1872,1326 1872,1324 1872,1323 1872,1318 1871,1313 1868,1308 1866,1304 1862,1300 1857,1298 1854,1295 1850,1294 1846,1294 L 1685,1276 C 1669,1274 1654,1286 1652,1302 1650,1319 1662,1333 1678,1335 L 1839,1353 C 1840,1353 1841,1353 1842,1353 1857,1353 1870,1342 1872,1327 Z"/>
        <path fill="rgb(247,147,41)" stroke="none" d="M 1697,1487 L 1855,1453 C 1858,1452 1860,1451 1863,1449 1868,1447 1871,1443 1874,1438 1877,1434 1878,1429 1878,1424 1878,1421 1878,1419 1877,1417 1874,1401 1858,1391 1842,1394 L 1684,1429 C 1668,1432 1658,1448 1661,1464 1664,1478 1677,1488 1690,1488 1692,1488 1695,1488 1697,1487 Z"/>
        <path fill="rgb(247,147,41)" stroke="none" d="M 1759,1616 L 1910,1559 C 1925,1553 1933,1536 1927,1521 1922,1505 1904,1498 1889,1503 L 1738,1560 C 1722,1566 1714,1584 1720,1599 1725,1611 1736,1618 1748,1618 1752,1618 1756,1618 1759,1616 Z"/>
        <path fill="rgb(252,212,181)" stroke="none" d="M 2941,738 C 2936,760 2907,770 2887,761 2845,740 2779,705 2754,692 2712,672 2698,646 2720,615 2749,575 2821,492 2864,484 2888,479 2907,497 2916,521 2930,558 2959,663 2941,738 Z"/>
        <path fill="rgb(252,212,181)" stroke="none" d="M 1934,841 C 1943,862 1972,867 1991,854 2029,827 2088,781 2110,765 2148,737 2158,709 2130,682 2095,648 2010,578 1967,577 1942,576 1927,597 1922,622 1914,661 1904,769 1934,841 Z"/>
       </g>
      </g>
      <g class="Graphic">
       <g id="id20">
        <rect class="BoundingBox" stroke="none" fill="none" x="2590" y="1711" width="655" height="655"/>
        <path fill="rgb(124,124,124)" stroke="none" d="M 2917,1776 C 2773,1776 2655,1894 2655,2038 2655,2182 2773,2300 2917,2300 3061,2300 3179,2182 3179,2038 3179,1894 3061,1776 2917,1776 L 2917,1776 Z M 2852,2156 L 2852,1920 3035,2038 2852,2156 2852,2156 Z"/>
       </g>
      </g>
     </g>
    </g>
   </g>
  </g>
 </g>
</svg>
